<svg width="830" height="960" viewBox="0 0 830 960" fill="none" xmlns="http://www.w3.org/2000/svg">
<path d="M433.521 455.333C462.869 425.986 496.264 412.83 536.744 412.83C577.223 412.83 613.655 425.986 639.967 455.333C669.314 484.681 682.47 518.077 682.47 558.556C682.47 599.036 669.314 635.467 639.967 661.779C610.619 691.127 577.223 704.282 536.744 704.282C496.264 704.282 459.833 691.127 433.521 661.779C404.174 632.431 391.018 599.036 391.018 558.556C391.018 518.077 404.174 482.657 433.521 455.333ZM829.208 959.303H244.28V909.716C244.28 878.344 262.495 851.021 297.915 826.733C334.346 802.445 374.826 784.229 417.329 775.122C462.869 763.99 500.312 758.93 536.744 758.93C573.176 758.93 610.619 762.978 656.159 775.122C701.698 787.265 742.177 804.469 775.573 826.733C812.005 851.021 829.208 878.344 829.208 909.716V959.303Z" fill="#0F1425"/>
<path fill-rule="evenodd" clip-rule="evenodd" d="M398.568 0.697266C504.774 0.697266 600.69 44.757 669.14 115.708L669.302 115.861C740.15 183.115 784.327 278.193 784.327 383.59C784.327 386.019 784.304 388.443 784.263 390.503C784.306 392.823 784.327 395.15 784.327 397.481C784.327 444.916 775.379 490.262 759.063 531.935C754.072 485.729 735.723 444.137 702.722 408.117C703.052 402.301 703.27 396.441 703.374 390.535L703.368 390.147C702.89 362.918 699.899 336.301 695.094 313.31H563.64C564.561 321.005 565.355 328.74 566.02 336.524C556.269 335.378 546.483 334.83 536.744 334.83C520.231 334.83 504.244 336.388 488.823 339.556C488.048 330.4 487.109 321.594 486.027 313.31H299.253L299.627 309.766C296.23 336.073 294.275 362.833 293.84 390.535L293.845 391.035C294.217 418.175 296.115 444.947 299.094 467.761H331.041C318.633 496.449 313.017 527.299 313.017 558.556C313.017 614.675 331.008 664.712 369.071 707.127C329.851 719.07 293.091 736.871 259.736 758.488C204.728 738.792 155.631 706.624 115.823 665.362L115.666 665.214C44.9069 597.969 0.792969 502.951 0.792969 397.629C0.792969 395.149 0.81697 392.674 0.860373 390.57C0.817033 388.249 0.795766 385.922 0.795766 383.59C0.795766 278.194 44.9731 183.115 115.983 115.709L116.09 115.597C184.433 44.758 280.349 0.698198 386.555 0.698198C388.651 0.698198 390.743 0.714738 392.52 0.745078C394.533 0.713475 396.548 0.697266 398.568 0.697266ZM545.261 234.333H659.109L659.268 234.173L658.522 232.716C623.298 169.517 564.853 121.03 492.7 98.2386C515.296 139.436 532.845 183.89 545.261 234.333ZM464.997 229.963C447.815 174.694 422.785 122.883 392.562 77.971L393.912 75.8326C362.338 122.883 337.308 174.694 318.998 234.173H466.125L464.997 229.963ZM81.7538 390.924C82.2324 418.153 85.2235 444.77 90.0284 467.761H220.686C217.735 443.105 216.089 418.033 215.819 392.287V388.784L215.821 388.409C216.101 361.869 217.886 335.69 220.754 313.31H90.0284L90.506 310.518C85.2235 336.3 82.2324 362.918 81.7482 390.535L81.7538 390.924ZM126.097 547.375L126.603 548.373C161.569 611.698 219.796 660.383 291.786 683.469C269.19 642.272 251.641 597.818 239.225 547.375H126.097ZM125.855 234.811H239.225L239.861 234.173L240.678 230.337C252.628 182.779 270.702 137.652 292.566 98.6709L290.536 99.226C220.323 121.481 161.819 170.048 125.855 234.811Z" fill="#0F1425"/>
</svg>
