<svg width="776" height="751" viewBox="0 0 776 751" fill="none" xmlns="http://www.w3.org/2000/svg">
<path d="M300.08 751.01C283.9 751.09 269.37 741.13 263.61 726.01L201.36 564.13C198.81 557.53 193.6 552.32 187 549.77L25.0802 487.469C4.94019 479.739 -5.11981 457.149 2.61019 436.999C6.58019 426.659 14.7502 418.499 25.0802 414.529L186.96 352.279C193.56 349.729 198.77 344.519 201.32 337.919L263.62 175.999C271.35 155.859 293.94 145.799 314.09 153.529C324.43 157.499 332.59 165.669 336.56 175.999L398.81 337.879C401.36 344.479 406.57 349.689 413.17 352.239L574.11 414.159C589.84 419.989 600.23 435.049 600.09 451.819C599.85 467.699 589.94 481.829 575.09 487.479L413.21 549.729C406.61 552.279 401.4 557.49 398.85 564.09L336.55 726.01C330.79 741.13 316.26 751.09 300.08 751.01Z" fill="black"/>
<path d="M600.08 351.009C589.74 351.009 580.46 344.629 576.75 334.979L541.06 242.209C539.79 238.899 537.18 236.289 533.87 235.019L441.1 199.329C428.22 194.369 421.8 179.899 426.76 167.009C429.3 160.419 434.51 155.209 441.1 152.669L533.87 116.979C537.18 115.709 539.79 113.099 541.06 109.789L576.48 17.6795C579.77 8.80947 587.68 2.45947 597.06 1.15947C608.44 -0.22053 619.3 6.31947 623.4 17.0195L659.09 109.789C660.36 113.099 662.97 115.709 666.28 116.979L759.05 152.669C771.93 157.629 778.35 172.099 773.39 184.989C770.85 191.579 765.64 196.789 759.05 199.329L666.28 235.019C662.97 236.289 660.36 238.899 659.09 242.209L623.4 334.979C619.69 344.639 610.42 351.009 600.07 351.009H600.08Z" fill="black"/>
</svg>
