<?xml version="1.0" encoding="UTF-8"?>
<svg xmlns="http://www.w3.org/2000/svg" version="1.1" viewBox="0 0 65 65">
  <defs>
    <style>
      .cls-1 {
        fill: #ff4f65;
      }

      .cls-2, .cls-3 {
        fill: #ff4f64;
      }

      .cls-3, .cls-4 {
        fill-rule: evenodd;
      }

      .cls-4 {
        fill: #f7f5fa;
      }
    </style>
  </defs>
  <!-- Generator: Adobe Illustrator 28.6.0, SVG Export Plug-In . SVG Version: 1.2.0 Build 709)  -->
  <g>
    <g id="Layer_1">
      <g>
        <path class="cls-2" d="M32.7,6.2c10.5,0,19.5,6.7,23,16,4.6.3,8.2,4.1,8.2,8.8s-2.2,6.7-5.3,8.1c-.3.1-.7.3-1,.4h0s0,0,0,0h0c-1.4.5-2.9,1-4.4,1.4,1.5-3,2.3-6.4,2.3-10,0-12.5-10.1-22.6-22.6-22.6h-.3c-12.5,0-22.6,10.1-22.6,22.6s.8,7,2.3,10c-1.5-.4-3-.8-4.4-1.3,0,0,0,0,0,0h0c-.4-.1-.7-.3-1-.4-3.1-1.3-5.3-4.5-5.3-8.1s3.6-8.5,8.2-8.8c3.5-9.3,12.5-15.9,23-16h.4Z"/>
        <path class="cls-3" d="M21.3,53.8c-3.8-1.9-7.1-4.7-9.6-8.2l1.6-1.1c2.3,3.2,5.3,5.8,8.8,7.6l-.9,1.8Z"/>
        <path class="cls-2" d="M30.3,58.8c-.7,0-1.4,0-2.1,0-1.8,0-3.2-1.5-3.3-3.3,0-1.8,1.4-3.3,3.2-3.3,1.4,0,7.2,0,8.6,0,1.8,0,3.2,1.6,3.2,3.4,0,1.8-1.5,3.2-3.3,3.2-.7,0-5.7,0-6.4,0h0Z"/>
        <path class="cls-4" d="M45.3,39.7c1.8-2.5,2.8-5.6,2.8-8.9,0-8.5-6.9-15.4-15.4-15.4s-15.4,6.9-15.4,15.4,6.7,15.2,15,15.4c0,0,0,0,0,0h12.1c.2,0,.3-.1.3-.3v-4.6c0-.6.2-1.2.5-1.6ZM44.5,47.5c.8,0,1.5-.7,1.5-1.5v-4.6c0-.3.1-.6.3-.9,1.9-2.7,3-6,3-9.6,0-9.2-7.4-16.6-16.6-16.6s-16.6,7.4-16.6,16.6,6.5,15.7,14.9,16.5c.4,0,.8,0,1.2,0h12.3Z"/>
        <circle class="cls-1" cx="39.3" cy="30.8" r="2"/>
        <circle class="cls-1" cx="32.7" cy="30.8" r="2"/>
        <circle class="cls-1" cx="26" cy="30.8" r="2"/>
      </g>
    </g>
  </g>
</svg>